<svg class="icon" style="width: 1em; height: 1em;vertical-align: middle;fill: currentColor;overflow: hidden;" viewBox="0 0 1024 1024" version="1.1" xmlns="http://www.w3.org/2000/svg" p-id="6166"><path d="M227.476875 402.12659l0 245.054205c0 32.483832-25.645077 58.69889-58.128909 58.69889s-58.69889-26.215058-58.69889-58.69889L110.649076 402.12659c0-31.914874 26.215058-58.129932 58.69889-58.129932C201.261816 343.996658 227.476875 370.211716 227.476875 402.12659zM775.145236 334.309018 247.994164 334.309018c0-90.613764 54.140061-169.258938 134.49518-210.29147l-40.46255-74.656327c-2.279926-3.988848-1.139963-9.118682 2.849908-11.397584 3.988848-1.708921 9.118682-0.569982 11.397584 3.418866l41.032532 75.226309c34.763758-15.387455 73.516364-23.936155 114.548896-23.936155 41.032532 0 79.785138 8.5487 114.547873 23.936155l41.032532-75.226309c2.279926-3.988848 7.408737-5.128811 11.398608-3.418866 3.988848 2.279926 5.128811 7.408737 2.848884 11.397584l-40.46255 74.656327C721.006198 165.049057 775.145236 243.695255 775.145236 334.309018zM773.436314 734.37467c0 34.763758-27.925003 62.688761-62.118779 62.688761l-42.742477 0 0 129.36637c0 32.483832-26.215058 58.69889-58.69889 58.69889s-58.69889-26.215058-58.69889-58.69889l0-129.36637-78.645175 0 0 129.36637c0 32.483832-26.215058 58.69889-58.69889 58.69889-31.91385 0-58.128909-26.215058-58.128909-58.69889l-0.569982-129.36637L312.961828 797.063431c-34.763758 0-62.688761-27.925003-62.688761-62.688761L250.273067 354.824261l523.163247 0L773.436314 734.37467zM413.833213 216.910215c0-11.967566-9.68764-22.226211-22.226211-22.226211-11.967566 0-21.656229 10.257621-21.656229 22.226211s9.68764 22.226211 21.656229 22.226211C404.14455 239.136426 413.833213 228.877781 413.833213 216.910215zM653.757584 216.910215c0-11.967566-9.68764-22.226211-21.655206-22.226211-12.537548 0-22.226211 10.257621-22.226211 22.226211s9.688663 22.226211 22.226211 22.226211C644.069945 239.136426 653.757584 228.877781 653.757584 216.910215zM913.060305 647.180795c0 32.483832-26.214035 58.69889-58.697867 58.69889-31.914874 0-58.129932-26.215058-58.129932-58.69889L796.232506 402.12659c0-32.484855 26.215058-58.129932 58.129932-58.129932 32.483832 0 58.697867 25.645077 58.697867 58.129932L913.060305 647.180795z" p-id="6167"></path></svg>
