<svg class="icon" style="width: 1em; height: 1em;vertical-align: middle;fill: currentColor;overflow: hidden;" viewBox="0 0 1024 1024" version="1.1" xmlns="http://www.w3.org/2000/svg" p-id="781"><path d="M453.356828 655.600587c30.073421 0 31.577093-16.540382 73.679883-15.036711 0 0 15.036711 1.503671 37.591777 9.022026 22.555066 7.518355 40.599119 9.022026 63.154185-13.53304 33.080764-33.080764 49.621145-81.198238 49.621145-81.198238s-54.132159-19.547724-54.132159-78.190896c1.503671-58.643172 43.606461-72.176211 43.606461-72.176211s-31.577093-52.628488-102.249633-34.584435l-49.621145 15.036711-37.591777-12.029369c0 0-55.63583-21.051395-96.234949 22.555066-42.10279 45.110132-39.095448 100.745962-21.051395 151.870778C378.173275 598.461087 414.26138 654.096916 453.356828 655.600587zM611.242291 239.0837c-106.760646 12.029369-99.242291 96.234949-99.242291 96.234949C617.256975 327.800294 611.242291 239.0837 611.242291 239.0837zM698.455213 0 325.544787 0c-48.117474 0-87.212922 37.591777-87.212922 85.709251l0 851.077827c0 46.613803 39.095448 87.212922 87.212922 87.212922l371.406755 0c48.117474 0 87.212922-40.599119 87.212922-87.212922L784.164464 85.709251C785.668135 37.591777 746.572687 0 698.455213 0zM465.386197 66.161527l105.256975 0c9.022026 0 18.044053 7.518355 18.044053 16.540382 0 9.022026-7.518355 16.540382-18.044053 16.540382l-105.256975 0c-9.022026 0-18.044053-7.518355-18.044053-16.540382C448.845815 73.679883 456.36417 66.161527 465.386197 66.161527zM518.014684 986.408223c-28.56975 0-52.628488-22.555066-52.628488-51.124816 0-28.56975 24.058737-51.124816 52.628488-51.124816 28.56975 0 52.628488 22.555066 52.628488 51.124816C570.643172 963.853157 546.584435 986.408223 518.014684 986.408223zM743.565345 839.048458 280.434655 839.048458 280.434655 163.900147l463.13069 0L743.565345 839.048458z" p-id="782"></path></svg>
