<svg class="icon" style="width: 1em; height: 1em;vertical-align: middle;fill: currentColor;overflow: hidden;" viewBox="0 0 1024 1024" version="1.1" xmlns="http://www.w3.org/2000/svg" p-id="3351"><path d="M651.264 446.464c-8.192 16.384-12.288 24.576-20.48 40.96-12.288 20.48-32.768 49.152-57.344 49.152-20.48 0-28.672-12.288-57.344-12.288-28.672 0-36.864 12.288-57.344 12.288-24.576 0-40.96-24.576-57.344-45.056-36.864-57.344-40.96-126.976-20.48-163.84 16.384-24.576 45.056-40.96 69.632-40.96 24.576 0 40.96 12.288 61.44 12.288 20.48 0 32.768-12.288 61.44-12.288 20.48 0 45.056 12.288 61.44 32.768C589.824 344.064 598.016 425.984 651.264 446.464zM557.056 258.048C569.344 245.76 577.536 225.28 573.44 204.8c-16.384 0-36.864 12.288-49.152 28.672C512 245.76 503.808 266.24 507.904 282.624 528.384 282.624 544.768 274.432 557.056 258.048zM266.24 942.08 757.76 942.08 266.24 942.08ZM512 819.2 512 942.08 512 819.2ZM950.272 40.96 73.728 40.96C45.056 40.96 20.48 65.536 20.48 94.208l0 630.784C20.48 753.664 45.056 778.24 73.728 778.24l876.544 0c28.672 0 53.248-24.576 53.248-53.248L1003.52 94.208C1003.52 65.536 978.944 40.96 950.272 40.96zM512 737.28c-24.576 0-40.96-16.384-40.96-40.96s16.384-40.96 40.96-40.96 40.96 16.384 40.96 40.96S536.576 737.28 512 737.28zM901.12 614.4l-778.24 0C110.592 614.4 102.4 606.208 102.4 593.92l0-450.56C102.4 131.072 110.592 122.88 122.88 122.88l778.24 0C913.408 122.88 921.6 131.072 921.6 143.36l0 450.56C921.6 606.208 913.408 614.4 901.12 614.4z" p-id="3352"></path></svg>
