<svg class="icon" style="width: 1em; height: 1em;vertical-align: middle;fill: currentColor;overflow: hidden;" viewBox="0 0 1024 1024" version="1.1" xmlns="http://www.w3.org/2000/svg" p-id="6074"><path d="M239.774912 494.562386c0 49.008178-40.053076 88.75399-89.465695 88.75399C100.834338 583.316376 60.78127 543.570564 60.78127 494.562386c0-49.028746 40.053068-88.774558 89.527947-88.774558 49.412619 0 89.465695 39.745812 89.465695 88.774558zm309.529273-212.437341c106.130265 0 193.582916 79.265213 205.51583 181.356983l139.044332-4.198937c-6.163615-75.292687-36.857136-143.731224-84.132197-197.411745-20.317076 14.264042-45.116775 22.641332-71.888009 22.641332-68.733541 0-124.413545-55.24483-124.413545-123.395204 0-3.602025 0.145976-7.142313 0.435797-10.662001-20.918909-3.910773-42.501912-5.989674-64.562225-5.989674-55.306436 0-107.541446 12.884975-153.882636 35.773302l68.712793 120.040175c25.982617-11.649998 54.808377-18.154231 85.169843-18.154231zm188.539956-32.253598c49.433379 0 89.486447-39.725228 89.486447-88.753973 0-49.028762-40.053068-88.774574-89.486447-88.774574-49.433363 0-89.48643 39.745812-89.48643 88.774574 0 49.028746 40.053068 88.753973 89.48643 88.753973zm4.648659 493.971902c-49.412631 0-89.465698 39.745812-89.465698 88.774566C653.027102 881.646668 693.08017 921.39248 742.492801 921.39248c49.454128 0 89.507195-39.745812 89.507195-88.774566 0-49.028754-40.053068-88.774566-89.507195-88.774566zM342.377174 487.358337c0-65.577499 31.004811-123.971532 79.29677-161.556122l-73.797265-117.117383c-61.843587 44.02707-108.413073 107.79328-130.36962 181.995064 34.408284 21.962082 57.194952 60.287659 57.194952 103.882491 0 41.989371-21.14719 79.059386-53.438679 101.350801 23.637534 70.311595 69.625936 130.516933 129.601763 172.279874l68.588286-121.048739c-47.005283-37.625759-77.076207-95.196469-77.076207-159.785986zm400.115627 221.843797c20.815134 0 40.447368 5.104581 57.67227 14.037615 53.604696-56.088738 88.345026-130.084695 94.010567-212.005104l-139.065081-2.737549c-10.666987 103.429685-98.742236 184.094533-205.806372 184.094533-29.697371 0-57.900551-6.216068-83.42659-17.392644l-69.107109 119.957834c46.009134 22.476657 97.787583 35.114632 152.533699 35.114632 23.658295 0 46.777003-2.408214 69.148622-6.895311 4.731652-63.848528 58.460871-114.174005 124.039993-114.174005z" p-id="6075"></path></svg>
